<svg width="256" height="256" viewBox="0 0 256 256" fill="none" xmlns="http://www.w3.org/2000/svg">
<rect width="256" height="256" fill="white"/>
<path fill-rule="evenodd" clip-rule="evenodd" d="M34 45L76.0002 47.3462L87.6665 77.8458H209V129.461C209 129.461 207.25 139.433 192.667 143.538C178.084 147.644 97.0003 167 97.0003 167L59.6665 66.1151L34 63.7693V45Z" fill="#4B72B8"/>
<path fill-rule="evenodd" clip-rule="evenodd" d="M82.5 185C91.6126 185 99 192.387 99 201.5C99 210.613 91.6126 218 82.5 218C73.3874 218 66 210.613 66 201.5C66 192.387 73.3874 185 82.5 185Z" fill="#222222"/>
<path fill-rule="evenodd" clip-rule="evenodd" d="M169.5 185C178.613 185 186 192.387 186 201.5C186 210.613 178.613 218 169.5 218C160.387 218 153 210.613 153 201.5C153 192.387 160.387 185 169.5 185Z" fill="#222222"/>
<path fill-rule="evenodd" clip-rule="evenodd" d="M200 58.9753L134.47 124.505L199.854 189.889L194.889 194.854L129.505 129.47L63.9753 195L59 190.025L124.53 124.495L59.1468 59.1115L64.1112 54.1468L129.495 119.53L195.025 54L200 58.9753Z" fill="#DE1826"/>
</svg>
