<svg 
 xmlns="http://www.w3.org/2000/svg"
 xmlns:xlink="http://www.w3.org/1999/xlink"
 width="570px" height="100px">
<path fill-rule="evenodd"  fill="rgb(222, 24, 38)"
 d="M10.210,-0.000 L200.112,-0.000 C205.751,-0.000 210.322,4.571 210.322,10.210 L210.322,89.790 C210.322,95.429 205.751,100.000 200.112,100.000 L10.210,100.000 C4.571,100.000 0.000,95.429 0.000,89.790 L0.000,10.210 C0.000,4.571 4.571,-0.000 10.210,-0.000 Z"/>
<path fill-rule="evenodd"  fill="rgb(255, 255, 255)"
 d="M163.802,68.548 L163.802,51.209 L146.855,68.598 L143.782,68.598 L143.782,33.265 C146.711,33.265 149.639,33.265 152.568,33.265 L152.568,50.553 L169.562,33.113 L172.683,33.113 L172.683,68.548 C169.755,68.548 166.778,68.548 163.802,68.548 ZM128.259,68.548 C125.427,68.548 122.594,68.548 119.762,68.548 L119.762,41.329 L111.504,41.329 C111.504,38.607 111.504,35.936 111.504,33.265 L136.468,33.265 C136.468,35.936 136.468,38.607 136.468,41.329 L128.259,41.329 L128.259,68.548 ZM95.496,54.384 L85.126,54.384 L85.126,68.548 C82.197,68.548 79.221,68.548 76.340,68.548 L76.340,33.265 C79.221,33.265 82.197,33.265 85.126,33.265 L85.126,46.067 L95.496,46.067 L95.496,33.265 C98.424,33.265 101.353,33.265 104.281,33.265 L104.281,68.548 C101.353,68.548 98.424,68.548 95.496,68.548 L95.496,54.384 ZM59.565,64.112 L46.315,64.112 L44.347,68.548 L35.945,68.548 L35.945,67.237 L51.068,32.811 L54.764,32.811 L69.935,67.237 L69.935,68.548 L61.533,68.548 L59.565,64.112 ZM52.892,47.126 L49.099,56.400 L56.781,56.400 L52.892,47.126 Z"/>
<path fill-rule="evenodd"  fill="rgb(0, 0, 0)"
 d="M569.286,79.197 L564.760,79.197 L551.583,55.354 L551.583,79.197 L547.778,79.197 L547.778,33.571 L551.583,33.571 L551.583,55.018 L563.879,33.571 L568.204,33.571 L555.428,55.018 L569.286,79.197 ZM530.717,49.677 L530.878,39.753 L515.458,79.197 L510.772,79.197 L510.772,33.571 L514.577,33.571 L514.577,64.395 L514.296,73.015 L529.716,33.571 L534.482,33.571 L534.482,79.197 L530.717,79.197 L530.717,49.677 ZM493.711,57.162 L477.570,57.162 L477.570,79.197 L473.765,79.197 L473.765,33.571 L477.570,33.571 L477.570,53.546 L493.711,53.546 L493.711,33.571 L497.476,33.571 L497.476,79.197 L493.711,79.197 L493.711,57.162 ZM457.946,79.197 L454.181,79.197 L454.181,37.188 L446.451,37.188 L446.451,33.571 L465.676,33.571 L465.676,37.188 L457.946,37.188 L457.946,79.197 ZM422.422,71.291 C424.157,74.600 426.788,76.253 430.312,76.253 C433.036,76.253 435.906,75.314 438.923,73.436 L438.923,77.305 C436.146,79.127 433.222,80.038 430.152,80.038 C425.559,80.038 422.028,77.985 419.558,73.878 C417.088,69.771 415.853,64.045 415.853,56.700 C415.853,48.906 416.955,42.956 419.158,38.849 C421.360,34.742 424.531,32.688 428.670,32.688 C432.275,32.688 435.118,34.490 437.201,38.092 C439.284,41.694 440.325,46.551 440.325,52.663 L440.325,56.363 L419.738,56.363 C419.792,63.007 420.686,67.984 422.422,71.291 ZM436.520,52.747 C436.520,47.729 435.792,43.734 434.337,40.762 C432.882,37.791 430.913,36.305 428.430,36.305 C423.196,36.305 420.325,41.786 419.818,52.747 L436.520,52.747 ZM405.081,58.508 C406.309,60.358 406.923,62.685 406.923,65.488 C406.923,69.806 405.868,73.170 403.759,75.581 C401.650,77.992 398.659,79.197 394.788,79.197 L384.775,79.197 L384.775,33.571 L393.987,33.571 C397.805,33.571 400.715,34.517 402.718,36.410 C404.721,38.302 405.722,41.001 405.722,44.505 C405.722,47.280 405.241,49.502 404.280,51.170 C403.319,52.838 401.797,54.023 399.714,54.723 L399.714,55.102 C402.063,55.522 403.853,56.658 405.081,58.508 ZM400.175,51.275 C401.229,49.873 401.757,47.616 401.757,44.505 C401.757,39.627 399.193,37.188 394.067,37.188 L388.580,37.188 L388.580,53.377 L394.868,53.377 C397.351,53.377 399.120,52.677 400.175,51.275 ZM395.028,56.826 L388.580,56.826 L388.580,75.581 L394.868,75.581 C397.698,75.581 399.760,74.775 401.056,73.163 C402.351,71.551 402.998,68.965 402.998,65.404 C402.998,62.321 402.324,60.120 400.976,58.802 C399.627,57.485 397.644,56.826 395.028,56.826 ZM360.184,80.038 C355.939,80.038 352.688,77.999 350.432,73.920 C348.175,69.841 347.047,63.961 347.047,56.279 C347.047,40.552 351.479,32.688 360.345,32.688 C364.510,32.688 367.754,34.749 370.077,38.870 C372.400,42.991 373.562,48.794 373.562,56.279 C373.562,63.961 372.407,69.841 370.097,73.920 C367.787,77.999 364.483,80.038 360.184,80.038 ZM360.265,36.473 C357.007,36.473 354.650,38.127 353.195,41.435 C351.740,44.743 351.013,49.691 351.013,56.279 C351.013,62.867 351.760,67.843 353.255,71.207 C354.750,74.571 357.087,76.253 360.265,76.253 C366.486,76.253 369.597,69.596 369.597,56.279 C369.597,43.075 366.486,36.473 360.265,36.473 ZM330.147,20.704 C325.741,20.704 322.237,23.150 319.633,28.042 C317.030,32.934 315.728,39.711 315.728,48.373 C315.728,54.008 316.329,58.914 317.531,63.091 C318.732,67.269 320.455,70.479 322.697,72.721 C324.940,74.964 327.544,76.085 330.508,76.085 C333.551,76.085 336.168,75.511 338.358,74.361 L338.358,78.146 C336.275,79.407 333.538,80.038 330.147,80.038 C326.435,80.038 323.184,78.777 320.394,76.253 C317.604,73.730 315.448,70.079 313.926,65.299 C312.404,60.520 311.643,54.849 311.643,48.289 C311.643,38.478 313.305,30.768 316.630,25.161 C319.954,19.554 324.486,16.751 330.227,16.751 C333.805,16.751 336.929,17.620 339.599,19.358 L337.797,22.974 C335.554,21.461 333.004,20.704 330.147,20.704 ZM297.106,79.870 C295.023,79.870 293.982,78.384 293.982,75.412 C293.982,72.413 295.023,70.913 297.106,70.913 C297.960,70.913 298.694,71.249 299.309,71.922 C299.923,72.595 300.230,73.759 300.230,75.412 C300.230,77.010 299.923,78.153 299.309,78.840 C298.694,79.526 297.960,79.870 297.106,79.870 Z"/>
<path fill-rule="evenodd"  fill="rgb(222, 24, 38)"
 d="M273.407,52.410 L273.407,79.197 L277.372,79.197 L277.372,17.718 L267.840,17.718 C257.720,17.718 252.660,23.605 252.660,35.380 C252.660,39.669 253.487,43.264 255.143,46.166 C256.799,49.067 259.095,50.925 262.032,51.737 L250.377,79.197 L254.823,79.197 L265.717,52.326 L273.407,52.410 ZM273.407,48.710 L267.359,48.710 C263.674,48.710 260.991,47.616 259.309,45.430 C257.627,43.243 256.785,39.823 256.785,35.169 C256.785,30.375 257.687,26.900 259.489,24.741 C261.291,22.582 264.275,21.503 268.441,21.503 L273.407,21.503 L273.407,48.710 Z"/>
</svg>